<svg xmlns="http://www.w3.org/2000/svg" width="377.996" height="60.877"><g clip-path="url(#a)" transform="translate(-70 -108)"><path d="M83.574 121.68c8.327 0 13.192 3.699 13.687 9.742v.939h-6.289c-.202-3.789-3.147-5.105-7.37-5.105-4.222 0-6.497 1.35-6.497 3.823 0 2.474 1.864 3.323 4.572 3.761l5.765.939c6.114 1 10.224 3.665 10.224 9.557 0 5.891-4.397 10.147-13.253 10.147S70.44 151.222 70 145.487v-.938h6.407c.293 3.789 3.58 5.357 8.012 5.357 4.43 0 6.671-1.63 6.671-4.166 0-2.535-1.891-3.541-5.185-4.07l-5.765-.939c-5.771-.944-9.588-3.637-9.588-9.5 0-5.864 4.718-9.551 13.022-9.551zM297.931 121.68c8.327 0 13.192 3.699 13.687 9.742v.939h-6.289c-.202-3.789-3.147-5.105-7.369-5.105-4.223 0-6.498 1.35-6.498 3.823 0 2.474 1.864 3.323 4.572 3.761l5.765.939c6.115 1 10.225 3.665 10.225 9.557 0 5.891-4.397 10.147-13.254 10.147-8.856 0-13.979-4.261-14.418-9.996v-.938h6.407c.292 3.789 3.58 5.357 8.011 5.357 4.431 0 6.672-1.63 6.672-4.166 0-2.535-1.892-3.541-5.185-4.07l-5.766-.939c-5.765-.938-9.582-3.631-9.582-9.489 0-5.858 4.718-9.557 13.017-9.557zM239.191 121.648c10.045 0 15.928 5.892 15.928 15.634v3.323h-25.561c.124 5.419 3.716 9.208 9.6 9.208 5.883 0 8.248-2.884 8.749-5.324h6.548v.939c-.884 4.228-5.005 10.085-15.207 10.085-10.202 0-16.846-5.796-16.846-16.949 0-11.153 6.644-16.916 16.778-16.916zm8.907 13.442c-.062-4.419-3.119-7.803-9.002-7.803-5.884 0-9.037 3.48-9.448 7.803zM395.738 121.531c9.982 0 15.015 5.785 15.392 11.44v.945h-6.896c-.282-3.047-2.517-6.504-8.344-6.504-5.828 0-9.757 3.963-9.757 11.097 0 7.134 3.811 11.125 9.757 11.125 5.945 0 8.09-3.491 8.439-6.729h6.959v.944c-.501 5.88-5.478 11.66-15.55 11.66-10.073 0-17.093-5.881-17.093-17.006s6.987-16.972 17.093-16.972zM120.328 121.694c-5.276 0-8.986 2.535-10.821 5.031v-14.127h-7.319v42.364h7.319v-14.183c0-7.78 3.457-12.609 9.014-12.609 4.188 0 6.694 2.664 6.694 7.134v19.658h7.381v-21.204c0-7.213-4.932-12.059-12.268-12.059zM160.797 122.211v14.122c0 7.937-3.344 12.671-8.952 12.671-4.149 0-6.632-2.693-6.632-7.202v-19.591h-7.381v20.884c0 7.522 4.791 12.379 12.206 12.379 4.611 0 8.682-1.967 10.759-5.172v4.655h7.381v-32.746zM281.288 122.353c-.985-.427-2.274-.658-3.732-.658-3.93 0-7.663 1.99-9.662 5.105v-4.587h-7.319v32.746h7.319v-12.705c0-10.102 4.657-13.706 9.014-13.706 1.571 0 3.001.276 4.262.827l.203.089v-7.077l-.085-.04zM433.651 134.741l13.332-12.53h-9.835l-13.282 12.12v-21.733h-7.319v42.364h7.319v-10.967l4.414-4.16 10.81 15.066.039.061h8.868zM196.363 128.265h-7.989v20.536h8.028v6.161h-6.519c-5.636 0-8.975-2.889-8.975-8.421v-18.276h-7.983v-6.066h7.983v-9.601h7.46v9.624h7.989v6.049z"/><path d="M218.63 128.265h-7.989v20.536h8.028v6.161h-6.52c-5.635 0-8.974-2.889-8.974-8.421v-18.276h-7.984v-6.066h7.984v-9.601h7.46v9.624h7.989v6.049zM338.36 128.265h-7.989v20.531h8.029v6.161h-6.52c-5.636 0-8.975-2.89-8.975-8.421v-18.271h-7.983v-6.066h7.983v-9.601h7.46v9.624h7.99v6.049zM349.295 153.317c-2.607-1.467-4.65-3.502-6.114-6.105-1.47-2.603-2.202-5.548-2.202-8.831 0-3.284.732-6.218 2.202-8.798 1.469-2.581 3.496-4.599 6.086-6.044 2.584-1.444 5.523-2.164 8.811-2.164 3.288 0 6.227.72 8.811 2.164a15.674 15.674 0 0 1 6.087 6.044c1.469 2.586 2.201 5.514 2.201 8.798 0 3.283-.738 6.228-2.201 8.831-1.47 2.603-3.508 4.644-6.115 6.105-2.606 1.468-5.534 2.198-8.783 2.198-3.248 0-6.17-.73-8.783-2.198zm13.845-5.352c1.492-.922 2.652-2.209 3.485-3.873.833-1.664 1.25-3.547 1.25-5.65 0-2.102-.417-4.036-1.25-5.683-.833-1.642-1.993-2.923-3.485-3.84-1.492-.922-3.181-1.377-5.067-1.377-1.886 0-3.576.461-5.068 1.377-1.492.922-2.651 2.198-3.485 3.84-.833 1.641-1.249 3.536-1.249 5.683 0 2.148.416 3.986 1.249 5.65.834 1.664 1.993 2.957 3.485 3.873 1.492.922 3.182 1.378 5.068 1.378 1.886 0 3.575-.461 5.067-1.378zM368.96 118.913c1.047 0 1.553-1.299.771-1.996-2.984-2.648-7.021-4.183-11.66-4.183s-8.671 1.535-11.66 4.183c-.783.697-.276 1.996.771 1.996h21.772zM366.939 110.682c.85 0 1.267-.563.631-.866-2.433-1.153-5.715-1.816-9.493-1.816-3.778 0-7.06.663-9.492 1.816-.636.303-.225.866.63.866zM347.189 157.969c-1.047 0-1.554 1.298-.771 1.995 2.984 2.648 7.02 4.183 11.66 4.183 4.639 0 8.67-1.535 11.66-4.183.782-.697.276-1.995-.772-1.995h-21.771zM349.215 166.203c-.85 0-1.267.562-.63.866 2.432 1.152 5.714 1.816 9.492 1.816 3.778 0 7.06-.664 9.492-1.816.637-.304.226-.866-.63-.866z" /></g><defs><clipPath id="a"><path transform="translate(70 108)" d="M0 0h377.996v60.877H0z"/></clipPath></defs></svg>
